<?xml version="1.0" encoding="utf-8"?>
<!-- Generator: Adobe Illustrator 21.0.0, SVG Export Plug-In . SVG Version: 6.00 Build 0)  -->
<svg version="1.1" id="Layer_1" xmlns="http://www.w3.org/2000/svg" xmlns:xlink="http://www.w3.org/1999/xlink" x="0px" y="0px"
	 viewBox="0 0 150 150" enable-background="new 0 0 150 150" xml:space="preserve">
<text transform="matrix(1 0 0 1 6.5793 142.5631)" fill="#4CAF50" font-family="'ArialMT'" font-size="14.6599px">EXISTING MEMBER</text>
<g>
	<g>
		<g>
			<circle fill="#5A6672" cx="41.4" cy="26.2" r="7.9"/>
			<path fill="#5A6672" d="M41.4,97.5L41.4,97.5c-11,0-20-9-20-20v-20c0-11,9-20,20-20h0c11,0,20,9,20,20v20
				C61.4,88.5,52.4,97.5,41.4,97.5z"/>
		</g>
		<g>
			<circle fill="#5A6672" cx="108.6" cy="26.2" r="7.9"/>
			<path fill="#5A6672" d="M108.6,97.5L108.6,97.5c-11,0-20-9-20-20v-20c0-11,9-20,20-20h0c11,0,20,9,20,20v20
				C128.7,88.5,119.7,97.5,108.6,97.5z"/>
		</g>
		<g>
			<circle fill="#5A6672" cx="75.3" cy="14.6" r="10.7"/>
			<path fill="#5A6672" d="M75.3,112L75.3,112C60.3,112,48,99.7,48,84.6V57.3C48,42.3,60.3,30,75.3,30h0c15,0,27.3,12.3,27.3,27.3
				v27.3C102.7,99.7,90.4,112,75.3,112z"/>
		</g>
		<g>
			<circle fill="#5A6672" cx="75.3" cy="14.6" r="10.7"/>
			<path fill="#5A6672" d="M75.3,112L75.3,112C60.3,112,48,99.7,48,84.6V57.3C48,42.3,60.3,30,75.3,30h0c15,0,27.3,12.3,27.3,27.3
				v27.3C102.7,99.7,90.4,112,75.3,112z"/>
		</g>
		<g>
			<circle fill="#5A6672" cx="75.3" cy="14.6" r="10.7"/>
			<path fill="#5A6672" d="M75.3,112L75.3,112C60.3,112,48,99.7,48,84.6V57.3C48,42.3,60.3,30,75.3,30h0c15,0,27.3,12.3,27.3,27.3
				v27.3C102.7,99.7,90.4,112,75.3,112z"/>
		</g>
		<g>
			<path fill="#5A6672" d="M89.6,57.5v20c0,8,4.8,15,11.7,18.2c1.5-3.4,2.4-7.1,2.4-11V57.3c0-6.1-2-11.7-5.4-16.3
				C93,44.7,89.6,50.7,89.6,57.5z"/>
			<path fill="#5A6672" d="M61,57.5v20c0,8-4.8,15-11.7,18.2c-1.5-3.4-2.4-7.1-2.4-11V57.3c0-6.1,2-11.7,5.4-16.3
				C57.6,44.7,61,50.7,61,57.5z"/>
			<g>
				<circle fill="#5A6672" cx="75.3" cy="14.6" r="10.7"/>
				<path fill="#5A6672" d="M75.3,112L75.3,112C60.3,112,48,99.7,48,84.6V57.3C48,42.3,60.3,30,75.3,30h0c15,0,27.3,12.3,27.3,27.3
					v27.3C102.7,99.7,90.4,112,75.3,112z"/>
			</g>
		</g>
	</g>
</g>
</svg>
